<mxfile host="app.diagrams.net" modified="2023-03-21T12:59:11.909Z" agent="5.0 (Windows)" etag="hPRaitKDJuusckTSroJa" version="21.0.8" type="github">
  <diagram id="C5RBs43oDa-KdzZeNtuy" name="Page-1">
    <mxGraphModel dx="1434" dy="782" grid="1" gridSize="10" guides="1" tooltips="1" connect="1" arrows="1" fold="1" page="1" pageScale="1" pageWidth="827" pageHeight="1169" math="0" shadow="0">
      <root>
        <mxCell id="WIyWlLk6GJQsqaUBKTNV-0" />
        <mxCell id="WIyWlLk6GJQsqaUBKTNV-1" parent="WIyWlLk6GJQsqaUBKTNV-0" />
        <mxCell id="x8LjX-4cg4YB7yUKELar-10" style="edgeStyle=orthogonalEdgeStyle;rounded=0;orthogonalLoop=1;jettySize=auto;html=1;entryX=0.5;entryY=0;entryDx=0;entryDy=0;" edge="1" parent="WIyWlLk6GJQsqaUBKTNV-1" source="x8LjX-4cg4YB7yUKELar-0" target="x8LjX-4cg4YB7yUKELar-8">
          <mxGeometry relative="1" as="geometry" />
        </mxCell>
        <mxCell id="x8LjX-4cg4YB7yUKELar-0" value="&lt;div&gt;Start&lt;/div&gt;" style="ellipse;whiteSpace=wrap;html=1;" vertex="1" parent="WIyWlLk6GJQsqaUBKTNV-1">
          <mxGeometry x="354" y="20" width="120" height="80" as="geometry" />
        </mxCell>
        <mxCell id="x8LjX-4cg4YB7yUKELar-12" style="edgeStyle=orthogonalEdgeStyle;rounded=0;orthogonalLoop=1;jettySize=auto;html=1;exitX=0.5;exitY=1;exitDx=0;exitDy=0;" edge="1" parent="WIyWlLk6GJQsqaUBKTNV-1" source="x8LjX-4cg4YB7yUKELar-2" target="x8LjX-4cg4YB7yUKELar-3">
          <mxGeometry relative="1" as="geometry" />
        </mxCell>
        <mxCell id="x8LjX-4cg4YB7yUKELar-2" value="long s" style="rounded=0;whiteSpace=wrap;html=1;" vertex="1" parent="WIyWlLk6GJQsqaUBKTNV-1">
          <mxGeometry x="354" y="230" width="120" height="60" as="geometry" />
        </mxCell>
        <mxCell id="x8LjX-4cg4YB7yUKELar-13" style="edgeStyle=orthogonalEdgeStyle;rounded=0;orthogonalLoop=1;jettySize=auto;html=1;exitX=1;exitY=0.5;exitDx=0;exitDy=0;entryX=0.5;entryY=0;entryDx=0;entryDy=0;" edge="1" parent="WIyWlLk6GJQsqaUBKTNV-1" source="x8LjX-4cg4YB7yUKELar-3" target="x8LjX-4cg4YB7yUKELar-5">
          <mxGeometry relative="1" as="geometry" />
        </mxCell>
        <mxCell id="x8LjX-4cg4YB7yUKELar-14" style="edgeStyle=orthogonalEdgeStyle;rounded=0;orthogonalLoop=1;jettySize=auto;html=1;exitX=0;exitY=0.5;exitDx=0;exitDy=0;entryX=0.5;entryY=0;entryDx=0;entryDy=0;" edge="1" parent="WIyWlLk6GJQsqaUBKTNV-1" source="x8LjX-4cg4YB7yUKELar-3" target="x8LjX-4cg4YB7yUKELar-4">
          <mxGeometry relative="1" as="geometry" />
        </mxCell>
        <mxCell id="x8LjX-4cg4YB7yUKELar-3" value="n==0" style="rhombus;whiteSpace=wrap;html=1;" vertex="1" parent="WIyWlLk6GJQsqaUBKTNV-1">
          <mxGeometry x="374" y="340" width="80" height="80" as="geometry" />
        </mxCell>
        <mxCell id="x8LjX-4cg4YB7yUKELar-16" style="edgeStyle=orthogonalEdgeStyle;rounded=0;orthogonalLoop=1;jettySize=auto;html=1;exitX=0.5;exitY=1;exitDx=0;exitDy=0;" edge="1" parent="WIyWlLk6GJQsqaUBKTNV-1" source="x8LjX-4cg4YB7yUKELar-4">
          <mxGeometry relative="1" as="geometry">
            <mxPoint x="420" y="630" as="targetPoint" />
          </mxGeometry>
        </mxCell>
        <mxCell id="x8LjX-4cg4YB7yUKELar-4" value="s=1" style="rounded=0;whiteSpace=wrap;html=1;" vertex="1" parent="WIyWlLk6GJQsqaUBKTNV-1">
          <mxGeometry x="210" y="450" width="120" height="60" as="geometry" />
        </mxCell>
        <mxCell id="x8LjX-4cg4YB7yUKELar-15" style="edgeStyle=orthogonalEdgeStyle;rounded=0;orthogonalLoop=1;jettySize=auto;html=1;exitX=0.5;exitY=1;exitDx=0;exitDy=0;entryX=0.567;entryY=0;entryDx=0;entryDy=0;entryPerimeter=0;" edge="1" parent="WIyWlLk6GJQsqaUBKTNV-1" source="x8LjX-4cg4YB7yUKELar-5" target="x8LjX-4cg4YB7yUKELar-9">
          <mxGeometry relative="1" as="geometry" />
        </mxCell>
        <mxCell id="x8LjX-4cg4YB7yUKELar-5" value="s=n*silnia(n-1)" style="rounded=0;whiteSpace=wrap;html=1;" vertex="1" parent="WIyWlLk6GJQsqaUBKTNV-1">
          <mxGeometry x="530" y="450" width="120" height="60" as="geometry" />
        </mxCell>
        <mxCell id="x8LjX-4cg4YB7yUKELar-7" value="stop" style="ellipse;whiteSpace=wrap;html=1;" vertex="1" parent="WIyWlLk6GJQsqaUBKTNV-1">
          <mxGeometry x="354" y="750" width="120" height="80" as="geometry" />
        </mxCell>
        <mxCell id="x8LjX-4cg4YB7yUKELar-11" style="edgeStyle=orthogonalEdgeStyle;rounded=0;orthogonalLoop=1;jettySize=auto;html=1;exitX=0.5;exitY=1;exitDx=0;exitDy=0;entryX=0.5;entryY=0;entryDx=0;entryDy=0;" edge="1" parent="WIyWlLk6GJQsqaUBKTNV-1" source="x8LjX-4cg4YB7yUKELar-8" target="x8LjX-4cg4YB7yUKELar-2">
          <mxGeometry relative="1" as="geometry" />
        </mxCell>
        <mxCell id="x8LjX-4cg4YB7yUKELar-8" value="long silnia(int n)" style="shape=process;whiteSpace=wrap;html=1;backgroundOutline=1;" vertex="1" parent="WIyWlLk6GJQsqaUBKTNV-1">
          <mxGeometry x="354" y="140" width="120" height="60" as="geometry" />
        </mxCell>
        <mxCell id="x8LjX-4cg4YB7yUKELar-17" style="edgeStyle=orthogonalEdgeStyle;rounded=0;orthogonalLoop=1;jettySize=auto;html=1;exitX=0.5;exitY=1;exitDx=0;exitDy=0;" edge="1" parent="WIyWlLk6GJQsqaUBKTNV-1" source="x8LjX-4cg4YB7yUKELar-9" target="x8LjX-4cg4YB7yUKELar-7">
          <mxGeometry relative="1" as="geometry" />
        </mxCell>
        <mxCell id="x8LjX-4cg4YB7yUKELar-9" value="zwracaj(s)" style="shape=parallelogram;perimeter=parallelogramPerimeter;whiteSpace=wrap;html=1;fixedSize=1;" vertex="1" parent="WIyWlLk6GJQsqaUBKTNV-1">
          <mxGeometry x="354" y="630" width="120" height="60" as="geometry" />
        </mxCell>
      </root>
    </mxGraphModel>
  </diagram>
</mxfile>
